<svg xmlns="http://www.w3.org/2000/svg" width="1100" height="760" viewBox="0 0 1100 760"><rect width="1100" height="760" fill="#f4f4f4"/><rect x="0" y="0" width="1100" height="104" fill="#fff"/><rect x="0" y="104" width="1100" height="4" fill="#0f62fe"/><text x="60" y="48" font-family="IBM Plex Sans, Arial" font-size="31" font-weight="600" fill="#161616">Agentic Operations Platform Overview</text><text x="60" y="76" font-family="IBM Plex Sans, Arial" font-size="15" fill="#525252">Multi-agent workflow state with human approval</text><text x="60" y="136" font-family="IBM Plex Sans, Arial" font-size="18" font-weight="600" fill="#161616">System side</text><text x="585" y="136" font-family="IBM Plex Sans, Arial" font-size="18" font-weight="600" fill="#161616">Workflow Results</text><g transform="translate(60 170)"><rect width="455" height="54" rx="2" fill="#ffffff" stroke="#dfe3e6"/><rect width="5" height="54" fill="#0f62fe"/><text x="22" y="24" font-family="IBM Plex Sans, Arial" font-size="15" font-weight="600" fill="#161616">Problem</text><text x="22" y="43" font-family="IBM Plex Sans, Arial" font-size="12" fill="#525252">Business context is spread across many tools</text></g>
<g transform="translate(60 246)"><rect width="455" height="54" rx="2" fill="#ffffff" stroke="#dfe3e6"/><rect width="5" height="54" fill="#0f62fe"/><text x="22" y="24" font-family="IBM Plex Sans, Arial" font-size="15" font-weight="600" fill="#161616">Users</text><text x="22" y="43" font-family="IBM Plex Sans, Arial" font-size="12" fill="#525252">Operators, founders, sales/marketing teams</text></g>
<g transform="translate(60 322)"><rect width="455" height="54" rx="2" fill="#ffffff" stroke="#dfe3e6"/><rect width="5" height="54" fill="#0f62fe"/><text x="22" y="24" font-family="IBM Plex Sans, Arial" font-size="15" font-weight="600" fill="#161616">Inputs</text><text x="22" y="43" font-family="IBM Plex Sans, Arial" font-size="12" fill="#525252">Project context and dummy business data</text></g>
<g transform="translate(60 398)"><rect width="455" height="54" rx="2" fill="#ffffff" stroke="#dfe3e6"/><rect width="5" height="54" fill="#0f62fe"/><text x="22" y="24" font-family="IBM Plex Sans, Arial" font-size="15" font-weight="600" fill="#161616">Agents</text><text x="22" y="43" font-family="IBM Plex Sans, Arial" font-size="12" fill="#525252">Strategy, content, outreach, proposal, reports</text></g><g transform="translate(585 170)"><rect width="455" height="54" rx="2" fill="#ffffff" stroke="#dfe3e6"/><rect width="5" height="54" fill="#24a148"/><text x="22" y="24" font-family="IBM Plex Sans, Arial" font-size="15" font-weight="600" fill="#161616">Approval inbox</text><text x="22" y="43" font-family="IBM Plex Sans, Arial" font-size="12" fill="#525252">Outputs are reviewed first</text></g>
<g transform="translate(585 246)"><rect width="455" height="54" rx="2" fill="#ffffff" stroke="#dfe3e6"/><rect width="5" height="54" fill="#24a148"/><text x="22" y="24" font-family="IBM Plex Sans, Arial" font-size="15" font-weight="600" fill="#161616">Dashboard</text><text x="22" y="43" font-family="IBM Plex Sans, Arial" font-size="12" fill="#525252">State is tracked across pages</text></g>
<g transform="translate(585 322)"><rect width="455" height="54" rx="2" fill="#ffffff" stroke="#dfe3e6"/><rect width="5" height="54" fill="#24a148"/><text x="22" y="24" font-family="IBM Plex Sans, Arial" font-size="15" font-weight="600" fill="#161616">Structured outputs</text><text x="22" y="43" font-family="IBM Plex Sans, Arial" font-size="12" fill="#525252">Agent responses are stored</text></g>
<g transform="translate(585 398)"><rect width="455" height="54" rx="2" fill="#ffffff" stroke="#dfe3e6"/><rect width="5" height="54" fill="#24a148"/><text x="22" y="24" font-family="IBM Plex Sans, Arial" font-size="15" font-weight="600" fill="#161616">Impact</text><text x="22" y="43" font-family="IBM Plex Sans, Arial" font-size="12" fill="#525252">Faster reviewable operations</text></g><rect x="60" y="675" width="980" height="48" rx="2" fill="#e0e0e0"/><text x="82" y="705" font-family="IBM Plex Sans, Arial" font-size="13" fill="#393939">Portfolio-safe diagram. No real client, CRM, tender, calendar, or operational data is represented.</text></svg>