<svg xmlns="http://www.w3.org/2000/svg" width="1100" height="820" viewBox="0 0 1100 820">
  <rect width="1100" height="820" fill="#f4f4f4"/>
  <rect x="0" y="0" width="1100" height="96" fill="#ffffff"/>
  <rect x="0" y="96" width="1100" height="4" fill="#0f62fe"/>
  <text x="50" y="50" font-family="IBM Plex Sans, Arial, sans-serif" font-size="32" fill="#161616" font-weight="600">Marketing AI / CRM System</text>
  <text x="50" y="76" font-family="IBM Plex Sans, Arial, sans-serif" font-size="15" fill="#525252">AI reporting and workflow dashboard for marketing and sales operations.</text>
  <text x="50" y="135" font-family="IBM Plex Sans, Arial, sans-serif" font-size="20" fill="#161616" font-weight="600">Workflow</text>
  <g transform="translate(50 170)"><rect width="430" height="64" rx="2" fill="#ffffff" stroke="#dfe3e6"/><circle cx="32" cy="32" r="14" fill="#0f62fe"/><text x="32" y="37" text-anchor="middle" font-size="14" fill="#fff" font-weight="600">1</text><text x="62" y="29" font-size="16" fill="#161616" font-weight="600">Data organized</text><text x="62" y="49" font-size="12" fill="#525252">Client and project records are structured</text></g>
<g transform="translate(535 170)"><rect width="430" height="64" rx="2" fill="#ffffff" stroke="#dfe3e6"/><circle cx="32" cy="32" r="14" fill="#0f62fe"/><text x="32" y="37" text-anchor="middle" font-size="14" fill="#fff" font-weight="600">2</text><text x="62" y="29" font-size="16" fill="#161616" font-weight="600">CRM reviewed</text><text x="62" y="49" font-size="12" fill="#525252">Activity and pipeline status are checked</text></g>
<g transform="translate(50 262)"><rect width="430" height="64" rx="2" fill="#ffffff" stroke="#dfe3e6"/><circle cx="32" cy="32" r="14" fill="#0f62fe"/><text x="32" y="37" text-anchor="middle" font-size="14" fill="#fff" font-weight="600">3</text><text x="62" y="29" font-size="16" fill="#161616" font-weight="600">AI summary</text><text x="62" y="49" font-size="12" fill="#525252">System summarizes campaign or pipeline status</text></g>
<g transform="translate(535 262)"><rect width="430" height="64" rx="2" fill="#ffffff" stroke="#dfe3e6"/><circle cx="32" cy="32" r="14" fill="#0f62fe"/><text x="32" y="37" text-anchor="middle" font-size="14" fill="#fff" font-weight="600">4</text><text x="62" y="29" font-size="16" fill="#161616" font-weight="600">Dashboard output</text><text x="62" y="49" font-size="12" fill="#525252">Reports and activity views are generated</text></g>
<g transform="translate(50 354)"><rect width="430" height="64" rx="2" fill="#ffffff" stroke="#dfe3e6"/><circle cx="32" cy="32" r="14" fill="#0f62fe"/><text x="32" y="37" text-anchor="middle" font-size="14" fill="#fff" font-weight="600">5</text><text x="62" y="29" font-size="16" fill="#161616" font-weight="600">Recommendations</text><text x="62" y="49" font-size="12" fill="#525252">Sales and marketing receive next actions</text></g>
<g transform="translate(535 354)"><rect width="430" height="64" rx="2" fill="#ffffff" stroke="#dfe3e6"/><circle cx="32" cy="32" r="14" fill="#0f62fe"/><text x="32" y="37" text-anchor="middle" font-size="14" fill="#fff" font-weight="600">6</text><text x="62" y="29" font-size="16" fill="#161616" font-weight="600">Human review</text><text x="62" y="49" font-size="12" fill="#525252">Team validates insights before action</text></g>
  <g transform="translate(50 620)"><rect width="470" height="145" rx="2" fill="#ffffff" stroke="#dfe3e6"/><rect width="470" height="6" fill="#0f62fe"/><text x="22" y="36" font-family="IBM Plex Sans, Arial, sans-serif" font-size="18" fill="#161616" font-weight="600">Tools and integrations</text><text x="72" y="652" font-size="14" fill="#393939">&#8226; Salesforce-style CRM</text>
<text x="72" y="674" font-size="14" fill="#393939">&#8226; Dashboards</text>
<text x="72" y="696" font-size="14" fill="#393939">&#8226; AI reporting</text>
<text x="72" y="718" font-size="14" fill="#393939">&#8226; Automation workflows</text>
<text x="72" y="740" font-size="14" fill="#393939">&#8226; OpenAI/Anthropic/Gemini providers</text></g>
  <g transform="translate(570 620)"><rect width="480" height="145" rx="2" fill="#ffffff" stroke="#dfe3e6"/><rect width="480" height="6" fill="#24a148"/><text x="22" y="36" font-family="IBM Plex Sans, Arial, sans-serif" font-size="18" fill="#161616" font-weight="600">Business impact</text><text x="22" y="68" font-family="IBM Plex Sans, Arial, sans-serif" font-size="15" fill="#393939">Gives teams faster pipeline visibility and clearer next actions.</text><text x="22" y="106" font-family="IBM Plex Sans, Arial, sans-serif" font-size="13" fill="#6f6f6f">Privacy note: real data and generated results are removed.</text></g>
</svg>